<?xml version="1.0" encoding="utf-8" standalone="no"?>
<!DOCTYPE svg PUBLIC "-//W3C//DTD SVG 1.1//EN"
  "http://www.w3.org/Graphics/SVG/1.1/DTD/svg11.dtd">
<svg xmlns:xlink="http://www.w3.org/1999/xlink" width="576pt" height="216pt" viewBox="0 0 576 216" xmlns="http://www.w3.org/2000/svg" version="1.1">
 <metadata>
  <rdf:RDF xmlns:dc="http://purl.org/dc/elements/1.1/" xmlns:cc="http://creativecommons.org/ns#" xmlns:rdf="http://www.w3.org/1999/02/22-rdf-syntax-ns#">
   <cc:Work>
    <dc:type rdf:resource="http://purl.org/dc/dcmitype/StillImage"/>
    <dc:date>2024-07-09T13:39:43.850245</dc:date>
    <dc:format>image/svg+xml</dc:format>
    <dc:creator>
     <cc:Agent>
      <dc:title>Matplotlib v3.6.0, https://matplotlib.org/</dc:title>
     </cc:Agent>
    </dc:creator>
   </cc:Work>
  </rdf:RDF>
 </metadata>
 <defs>
  <style type="text/css">*{stroke-linejoin: round; stroke-linecap: butt}</style>
 </defs>
 <g id="figure_1">
  <g id="patch_1">
   <path d="M 0 216 
L 576 216 
L 576 0 
L 0 0 
z
" style="fill: #ffffff"/>
  </g>
  <g id="axes_1">
   <g id="patch_2">
    <path d="M 184.3 174.04 
L 366.634015 174.04 
L 366.634015 10.8 
L 184.3 10.8 
z
" style="fill: #ffffff"/>
   </g>
   <g id="patch_3">
    <path d="M 184.3 163.168837 
L 357.951443 163.168837 
L 357.951443 159.717674 
L 184.3 159.717674 
z
" clip-path="url(#pc5423f8f12)" style="fill: #ff7f0e"/>
   </g>
   <g id="patch_4">
    <path d="M 184.3 149.364186 
L 184.3 149.364186 
L 184.3 145.913023 
L 184.3 145.913023 
z
" clip-path="url(#pc5423f8f12)" style="fill: #ff7f0e"/>
   </g>
   <g id="patch_5">
    <path d="M 184.3 135.559535 
L 256.654768 135.559535 
L 256.654768 132.108372 
L 184.3 132.108372 
z
" clip-path="url(#pc5423f8f12)" style="fill: #ff7f0e"/>
   </g>
   <g id="patch_6">
    <path d="M 184.3 121.754884 
L 184.3 121.754884 
L 184.3 118.303721 
L 184.3 118.303721 
z
" clip-path="url(#pc5423f8f12)" style="fill: #ff7f0e"/>
   </g>
   <g id="patch_7">
    <path d="M 184.3 107.950233 
L 261.478419 107.950233 
L 261.478419 104.49907 
L 184.3 104.49907 
z
" clip-path="url(#pc5423f8f12)" style="fill: #ff7f0e"/>
   </g>
   <g id="patch_8">
    <path d="M 184.3 94.145581 
L 198.770954 94.145581 
L 198.770954 90.694419 
L 184.3 90.694419 
z
" clip-path="url(#pc5423f8f12)" style="fill: #ff7f0e"/>
   </g>
   <g id="patch_9">
    <path d="M 184.3 80.34093 
L 319.362234 80.34093 
L 319.362234 76.889767 
L 184.3 76.889767 
z
" clip-path="url(#pc5423f8f12)" style="fill: #ff7f0e"/>
   </g>
   <g id="patch_10">
    <path d="M 184.3 66.536279 
L 198.770954 66.536279 
L 198.770954 63.085116 
L 184.3 63.085116 
z
" clip-path="url(#pc5423f8f12)" style="fill: #ff7f0e"/>
   </g>
   <g id="patch_11">
    <path d="M 184.3 52.731628 
L 213.241907 52.731628 
L 213.241907 49.280465 
L 184.3 49.280465 
z
" clip-path="url(#pc5423f8f12)" style="fill: #ff7f0e"/>
   </g>
   <g id="patch_12">
    <path d="M 184.3 38.926977 
L 184.3 38.926977 
L 184.3 35.475814 
L 184.3 35.475814 
z
" clip-path="url(#pc5423f8f12)" style="fill: #ff7f0e"/>
   </g>
   <g id="patch_13">
    <path d="M 184.3 25.122326 
L 256.654768 25.122326 
L 256.654768 21.671163 
L 184.3 21.671163 
z
" clip-path="url(#pc5423f8f12)" style="fill: #ff7f0e"/>
   </g>
   <g id="patch_14">
    <path d="M 184.3 159.717674 
L 184.3 159.717674 
L 184.3 156.266512 
L 184.3 156.266512 
z
" clip-path="url(#pc5423f8f12)" style="fill: #2ca02c"/>
   </g>
   <g id="patch_15">
    <path d="M 184.3 145.913023 
L 356.992043 145.913023 
L 356.992043 142.46186 
L 184.3 142.46186 
z
" clip-path="url(#pc5423f8f12)" style="fill: #2ca02c"/>
   </g>
   <g id="patch_16">
    <path d="M 184.3 132.108372 
L 184.3 132.108372 
L 184.3 128.657209 
L 184.3 128.657209 
z
" clip-path="url(#pc5423f8f12)" style="fill: #2ca02c"/>
   </g>
   <g id="patch_17">
    <path d="M 184.3 118.303721 
L 188.777201 118.303721 
L 188.777201 114.852558 
L 184.3 114.852558 
z
" clip-path="url(#pc5423f8f12)" style="fill: #2ca02c"/>
   </g>
   <g id="patch_18">
    <path d="M 184.3 104.49907 
L 252.417417 104.49907 
L 252.417417 101.047907 
L 184.3 101.047907 
z
" clip-path="url(#pc5423f8f12)" style="fill: #2ca02c"/>
   </g>
   <g id="patch_19">
    <path d="M 184.3 90.694419 
L 229.231911 90.694419 
L 229.231911 87.243256 
L 184.3 87.243256 
z
" clip-path="url(#pc5423f8f12)" style="fill: #2ca02c"/>
   </g>
   <g id="patch_20">
    <path d="M 184.3 76.889767 
L 184.3 76.889767 
L 184.3 73.438605 
L 184.3 73.438605 
z
" clip-path="url(#pc5423f8f12)" style="fill: #2ca02c"/>
   </g>
   <g id="patch_21">
    <path d="M 184.3 63.085116 
L 239.625414 63.085116 
L 239.625414 59.633953 
L 184.3 59.633953 
z
" clip-path="url(#pc5423f8f12)" style="fill: #2ca02c"/>
   </g>
   <g id="patch_22">
    <path d="M 184.3 49.280465 
L 354.113842 49.280465 
L 354.113842 45.829302 
L 184.3 45.829302 
z
" clip-path="url(#pc5423f8f12)" style="fill: #2ca02c"/>
   </g>
   <g id="patch_23">
    <path d="M 184.3 35.475814 
L 185.0995 35.475814 
L 185.0995 32.024651 
L 184.3 32.024651 
z
" clip-path="url(#pc5423f8f12)" style="fill: #2ca02c"/>
   </g>
   <g id="patch_24">
    <path d="M 184.3 21.671163 
L 269.686621 21.671163 
L 269.686621 18.22 
L 184.3 18.22 
z
" clip-path="url(#pc5423f8f12)" style="fill: #2ca02c"/>
   </g>
   <g id="patch_25">
    <path d="M 184.3 166.62 
L 184.3 166.62 
L 184.3 163.168837 
L 184.3 163.168837 
z
" clip-path="url(#pc5423f8f12)" style="fill: #1f77b4"/>
   </g>
   <g id="patch_26">
    <path d="M 184.3 152.815349 
L 260.835266 152.815349 
L 260.835266 149.364186 
L 184.3 149.364186 
z
" clip-path="url(#pc5423f8f12)" style="fill: #1f77b4"/>
   </g>
   <g id="patch_27">
    <path d="M 184.3 139.010698 
L 184.3 139.010698 
L 184.3 135.559535 
L 184.3 135.559535 
z
" clip-path="url(#pc5423f8f12)" style="fill: #1f77b4"/>
   </g>
   <g id="patch_28">
    <path d="M 184.3 125.206047 
L 184.3 125.206047 
L 184.3 121.754884 
L 184.3 121.754884 
z
" clip-path="url(#pc5423f8f12)" style="fill: #1f77b4"/>
   </g>
   <g id="patch_29">
    <path d="M 184.3 111.401395 
L 238.324893 111.401395 
L 238.324893 107.950233 
L 184.3 107.950233 
z
" clip-path="url(#pc5423f8f12)" style="fill: #1f77b4"/>
   </g>
   <g id="patch_30">
    <path d="M 184.3 97.596744 
L 195.876763 97.596744 
L 195.876763 94.145581 
L 184.3 94.145581 
z
" clip-path="url(#pc5423f8f12)" style="fill: #1f77b4"/>
   </g>
   <g id="patch_31">
    <path d="M 184.3 83.792093 
L 184.3 83.792093 
L 184.3 80.34093 
L 184.3 80.34093 
z
" clip-path="url(#pc5423f8f12)" style="fill: #1f77b4"/>
   </g>
   <g id="patch_32">
    <path d="M 184.3 69.987442 
L 197.16307 69.987442 
L 197.16307 66.536279 
L 184.3 66.536279 
z
" clip-path="url(#pc5423f8f12)" style="fill: #1f77b4"/>
   </g>
   <g id="patch_33">
    <path d="M 184.3 56.182791 
L 268.553108 56.182791 
L 268.553108 52.731628 
L 184.3 52.731628 
z
" clip-path="url(#pc5423f8f12)" style="fill: #1f77b4"/>
   </g>
   <g id="patch_34">
    <path d="M 184.3 42.37814 
L 184.3 42.37814 
L 184.3 38.926977 
L 184.3 38.926977 
z
" clip-path="url(#pc5423f8f12)" style="fill: #1f77b4"/>
   </g>
   <g id="patch_35">
    <path d="M 184.3 28.573488 
L 197.806223 28.573488 
L 197.806223 25.122326 
L 184.3 25.122326 
z
" clip-path="url(#pc5423f8f12)" style="fill: #1f77b4"/>
   </g>
   <g id="matplotlib.axis_1">
    <g id="xtick_1">
     <g id="line2d_1">
      <defs>
       <path id="m3b5c8719ae" d="M 0 0 
L 0 3.5 
" style="stroke: #000000; stroke-width: 0.8"/>
      </defs>
      <g>
       <use xlink:href="#m3b5c8719ae" x="184.3" y="174.04" style="stroke: #000000; stroke-width: 0.8"/>
      </g>
     </g>
     <g id="text_1">
      <!-- 0 -->
      <g transform="translate(181.11875 188.638438) scale(0.1 -0.1)">
       <defs>
        <path id="DejaVuSans-30" d="M 2034 4250 
Q 1547 4250 1301 3770 
Q 1056 3291 1056 2328 
Q 1056 1369 1301 889 
Q 1547 409 2034 409 
Q 2525 409 2770 889 
Q 3016 1369 3016 2328 
Q 3016 3291 2770 3770 
Q 2525 4250 2034 4250 
z
M 2034 4750 
Q 2819 4750 3233 4129 
Q 3647 3509 3647 2328 
Q 3647 1150 3233 529 
Q 2819 -91 2034 -91 
Q 1250 -91 836 529 
Q 422 1150 422 2328 
Q 422 3509 836 4129 
Q 1250 4750 2034 4750 
z
" transform="scale(0.015625)"/>
       </defs>
       <use xlink:href="#DejaVuSans-30"/>
      </g>
     </g>
    </g>
    <g id="xtick_2">
     <g id="line2d_2">
      <g>
       <use xlink:href="#m3b5c8719ae" x="219.030289" y="174.04" style="stroke: #000000; stroke-width: 0.8"/>
      </g>
     </g>
     <g id="text_2">
      <!-- 20 -->
      <g transform="translate(212.667789 188.638438) scale(0.1 -0.1)">
       <defs>
        <path id="DejaVuSans-32" d="M 1228 531 
L 3431 531 
L 3431 0 
L 469 0 
L 469 531 
Q 828 903 1448 1529 
Q 2069 2156 2228 2338 
Q 2531 2678 2651 2914 
Q 2772 3150 2772 3378 
Q 2772 3750 2511 3984 
Q 2250 4219 1831 4219 
Q 1534 4219 1204 4116 
Q 875 4013 500 3803 
L 500 4441 
Q 881 4594 1212 4672 
Q 1544 4750 1819 4750 
Q 2544 4750 2975 4387 
Q 3406 4025 3406 3419 
Q 3406 3131 3298 2873 
Q 3191 2616 2906 2266 
Q 2828 2175 2409 1742 
Q 1991 1309 1228 531 
z
" transform="scale(0.015625)"/>
       </defs>
       <use xlink:href="#DejaVuSans-32"/>
       <use xlink:href="#DejaVuSans-30" x="63.623047"/>
      </g>
     </g>
    </g>
    <g id="xtick_3">
     <g id="line2d_3">
      <g>
       <use xlink:href="#m3b5c8719ae" x="253.760577" y="174.04" style="stroke: #000000; stroke-width: 0.8"/>
      </g>
     </g>
     <g id="text_3">
      <!-- 40 -->
      <g transform="translate(247.398077 188.638438) scale(0.1 -0.1)">
       <defs>
        <path id="DejaVuSans-34" d="M 2419 4116 
L 825 1625 
L 2419 1625 
L 2419 4116 
z
M 2253 4666 
L 3047 4666 
L 3047 1625 
L 3713 1625 
L 3713 1100 
L 3047 1100 
L 3047 0 
L 2419 0 
L 2419 1100 
L 313 1100 
L 313 1709 
L 2253 4666 
z
" transform="scale(0.015625)"/>
       </defs>
       <use xlink:href="#DejaVuSans-34"/>
       <use xlink:href="#DejaVuSans-30" x="63.623047"/>
      </g>
     </g>
    </g>
    <g id="xtick_4">
     <g id="line2d_4">
      <g>
       <use xlink:href="#m3b5c8719ae" x="288.490866" y="174.04" style="stroke: #000000; stroke-width: 0.8"/>
      </g>
     </g>
     <g id="text_4">
      <!-- 60 -->
      <g transform="translate(282.128366 188.638438) scale(0.1 -0.1)">
       <defs>
        <path id="DejaVuSans-36" d="M 2113 2584 
Q 1688 2584 1439 2293 
Q 1191 2003 1191 1497 
Q 1191 994 1439 701 
Q 1688 409 2113 409 
Q 2538 409 2786 701 
Q 3034 994 3034 1497 
Q 3034 2003 2786 2293 
Q 2538 2584 2113 2584 
z
M 3366 4563 
L 3366 3988 
Q 3128 4100 2886 4159 
Q 2644 4219 2406 4219 
Q 1781 4219 1451 3797 
Q 1122 3375 1075 2522 
Q 1259 2794 1537 2939 
Q 1816 3084 2150 3084 
Q 2853 3084 3261 2657 
Q 3669 2231 3669 1497 
Q 3669 778 3244 343 
Q 2819 -91 2113 -91 
Q 1303 -91 875 529 
Q 447 1150 447 2328 
Q 447 3434 972 4092 
Q 1497 4750 2381 4750 
Q 2619 4750 2861 4703 
Q 3103 4656 3366 4563 
z
" transform="scale(0.015625)"/>
       </defs>
       <use xlink:href="#DejaVuSans-36"/>
       <use xlink:href="#DejaVuSans-30" x="63.623047"/>
      </g>
     </g>
    </g>
    <g id="xtick_5">
     <g id="line2d_5">
      <g>
       <use xlink:href="#m3b5c8719ae" x="323.221154" y="174.04" style="stroke: #000000; stroke-width: 0.8"/>
      </g>
     </g>
     <g id="text_5">
      <!-- 80 -->
      <g transform="translate(316.858654 188.638438) scale(0.1 -0.1)">
       <defs>
        <path id="DejaVuSans-38" d="M 2034 2216 
Q 1584 2216 1326 1975 
Q 1069 1734 1069 1313 
Q 1069 891 1326 650 
Q 1584 409 2034 409 
Q 2484 409 2743 651 
Q 3003 894 3003 1313 
Q 3003 1734 2745 1975 
Q 2488 2216 2034 2216 
z
M 1403 2484 
Q 997 2584 770 2862 
Q 544 3141 544 3541 
Q 544 4100 942 4425 
Q 1341 4750 2034 4750 
Q 2731 4750 3128 4425 
Q 3525 4100 3525 3541 
Q 3525 3141 3298 2862 
Q 3072 2584 2669 2484 
Q 3125 2378 3379 2068 
Q 3634 1759 3634 1313 
Q 3634 634 3220 271 
Q 2806 -91 2034 -91 
Q 1263 -91 848 271 
Q 434 634 434 1313 
Q 434 1759 690 2068 
Q 947 2378 1403 2484 
z
M 1172 3481 
Q 1172 3119 1398 2916 
Q 1625 2713 2034 2713 
Q 2441 2713 2670 2916 
Q 2900 3119 2900 3481 
Q 2900 3844 2670 4047 
Q 2441 4250 2034 4250 
Q 1625 4250 1398 4047 
Q 1172 3844 1172 3481 
z
" transform="scale(0.015625)"/>
       </defs>
       <use xlink:href="#DejaVuSans-38"/>
       <use xlink:href="#DejaVuSans-30" x="63.623047"/>
      </g>
     </g>
    </g>
    <g id="xtick_6">
     <g id="line2d_6">
      <g>
       <use xlink:href="#m3b5c8719ae" x="357.951443" y="174.04" style="stroke: #000000; stroke-width: 0.8"/>
      </g>
     </g>
     <g id="text_6">
      <!-- 100 -->
      <g transform="translate(348.407693 188.638438) scale(0.1 -0.1)">
       <defs>
        <path id="DejaVuSans-31" d="M 794 531 
L 1825 531 
L 1825 4091 
L 703 3866 
L 703 4441 
L 1819 4666 
L 2450 4666 
L 2450 531 
L 3481 531 
L 3481 0 
L 794 0 
L 794 531 
z
" transform="scale(0.015625)"/>
       </defs>
       <use xlink:href="#DejaVuSans-31"/>
       <use xlink:href="#DejaVuSans-30" x="63.623047"/>
       <use xlink:href="#DejaVuSans-30" x="127.246094"/>
      </g>
     </g>
    </g>
    <g id="text_7">
     <!-- % known vuln. drivers -->
     <g transform="translate(219.977945 202.316563) scale(0.1 -0.1)">
      <defs>
       <path id="DejaVuSans-25" d="M 4653 2053 
Q 4381 2053 4226 1822 
Q 4072 1591 4072 1178 
Q 4072 772 4226 539 
Q 4381 306 4653 306 
Q 4919 306 5073 539 
Q 5228 772 5228 1178 
Q 5228 1588 5073 1820 
Q 4919 2053 4653 2053 
z
M 4653 2450 
Q 5147 2450 5437 2106 
Q 5728 1763 5728 1178 
Q 5728 594 5436 251 
Q 5144 -91 4653 -91 
Q 4153 -91 3862 251 
Q 3572 594 3572 1178 
Q 3572 1766 3864 2108 
Q 4156 2450 4653 2450 
z
M 1428 4353 
Q 1159 4353 1004 4120 
Q 850 3888 850 3481 
Q 850 3069 1003 2837 
Q 1156 2606 1428 2606 
Q 1700 2606 1854 2837 
Q 2009 3069 2009 3481 
Q 2009 3884 1853 4118 
Q 1697 4353 1428 4353 
z
M 4250 4750 
L 4750 4750 
L 1831 -91 
L 1331 -91 
L 4250 4750 
z
M 1428 4750 
Q 1922 4750 2215 4408 
Q 2509 4066 2509 3481 
Q 2509 2891 2217 2550 
Q 1925 2209 1428 2209 
Q 931 2209 642 2551 
Q 353 2894 353 3481 
Q 353 4063 643 4406 
Q 934 4750 1428 4750 
z
" transform="scale(0.015625)"/>
       <path id="DejaVuSans-20" transform="scale(0.015625)"/>
       <path id="DejaVuSans-6b" d="M 581 4863 
L 1159 4863 
L 1159 1991 
L 2875 3500 
L 3609 3500 
L 1753 1863 
L 3688 0 
L 2938 0 
L 1159 1709 
L 1159 0 
L 581 0 
L 581 4863 
z
" transform="scale(0.015625)"/>
       <path id="DejaVuSans-6e" d="M 3513 2113 
L 3513 0 
L 2938 0 
L 2938 2094 
Q 2938 2591 2744 2837 
Q 2550 3084 2163 3084 
Q 1697 3084 1428 2787 
Q 1159 2491 1159 1978 
L 1159 0 
L 581 0 
L 581 3500 
L 1159 3500 
L 1159 2956 
Q 1366 3272 1645 3428 
Q 1925 3584 2291 3584 
Q 2894 3584 3203 3211 
Q 3513 2838 3513 2113 
z
" transform="scale(0.015625)"/>
       <path id="DejaVuSans-6f" d="M 1959 3097 
Q 1497 3097 1228 2736 
Q 959 2375 959 1747 
Q 959 1119 1226 758 
Q 1494 397 1959 397 
Q 2419 397 2687 759 
Q 2956 1122 2956 1747 
Q 2956 2369 2687 2733 
Q 2419 3097 1959 3097 
z
M 1959 3584 
Q 2709 3584 3137 3096 
Q 3566 2609 3566 1747 
Q 3566 888 3137 398 
Q 2709 -91 1959 -91 
Q 1206 -91 779 398 
Q 353 888 353 1747 
Q 353 2609 779 3096 
Q 1206 3584 1959 3584 
z
" transform="scale(0.015625)"/>
       <path id="DejaVuSans-77" d="M 269 3500 
L 844 3500 
L 1563 769 
L 2278 3500 
L 2956 3500 
L 3675 769 
L 4391 3500 
L 4966 3500 
L 4050 0 
L 3372 0 
L 2619 2869 
L 1863 0 
L 1184 0 
L 269 3500 
z
" transform="scale(0.015625)"/>
       <path id="DejaVuSans-76" d="M 191 3500 
L 800 3500 
L 1894 563 
L 2988 3500 
L 3597 3500 
L 2284 0 
L 1503 0 
L 191 3500 
z
" transform="scale(0.015625)"/>
       <path id="DejaVuSans-75" d="M 544 1381 
L 544 3500 
L 1119 3500 
L 1119 1403 
Q 1119 906 1312 657 
Q 1506 409 1894 409 
Q 2359 409 2629 706 
Q 2900 1003 2900 1516 
L 2900 3500 
L 3475 3500 
L 3475 0 
L 2900 0 
L 2900 538 
Q 2691 219 2414 64 
Q 2138 -91 1772 -91 
Q 1169 -91 856 284 
Q 544 659 544 1381 
z
M 1991 3584 
L 1991 3584 
z
" transform="scale(0.015625)"/>
       <path id="DejaVuSans-6c" d="M 603 4863 
L 1178 4863 
L 1178 0 
L 603 0 
L 603 4863 
z
" transform="scale(0.015625)"/>
       <path id="DejaVuSans-2e" d="M 684 794 
L 1344 794 
L 1344 0 
L 684 0 
L 684 794 
z
" transform="scale(0.015625)"/>
       <path id="DejaVuSans-64" d="M 2906 2969 
L 2906 4863 
L 3481 4863 
L 3481 0 
L 2906 0 
L 2906 525 
Q 2725 213 2448 61 
Q 2172 -91 1784 -91 
Q 1150 -91 751 415 
Q 353 922 353 1747 
Q 353 2572 751 3078 
Q 1150 3584 1784 3584 
Q 2172 3584 2448 3432 
Q 2725 3281 2906 2969 
z
M 947 1747 
Q 947 1113 1208 752 
Q 1469 391 1925 391 
Q 2381 391 2643 752 
Q 2906 1113 2906 1747 
Q 2906 2381 2643 2742 
Q 2381 3103 1925 3103 
Q 1469 3103 1208 2742 
Q 947 2381 947 1747 
z
" transform="scale(0.015625)"/>
       <path id="DejaVuSans-72" d="M 2631 2963 
Q 2534 3019 2420 3045 
Q 2306 3072 2169 3072 
Q 1681 3072 1420 2755 
Q 1159 2438 1159 1844 
L 1159 0 
L 581 0 
L 581 3500 
L 1159 3500 
L 1159 2956 
Q 1341 3275 1631 3429 
Q 1922 3584 2338 3584 
Q 2397 3584 2469 3576 
Q 2541 3569 2628 3553 
L 2631 2963 
z
" transform="scale(0.015625)"/>
       <path id="DejaVuSans-69" d="M 603 3500 
L 1178 3500 
L 1178 0 
L 603 0 
L 603 3500 
z
M 603 4863 
L 1178 4863 
L 1178 4134 
L 603 4134 
L 603 4863 
z
" transform="scale(0.015625)"/>
       <path id="DejaVuSans-65" d="M 3597 1894 
L 3597 1613 
L 953 1613 
Q 991 1019 1311 708 
Q 1631 397 2203 397 
Q 2534 397 2845 478 
Q 3156 559 3463 722 
L 3463 178 
Q 3153 47 2828 -22 
Q 2503 -91 2169 -91 
Q 1331 -91 842 396 
Q 353 884 353 1716 
Q 353 2575 817 3079 
Q 1281 3584 2069 3584 
Q 2775 3584 3186 3129 
Q 3597 2675 3597 1894 
z
M 3022 2063 
Q 3016 2534 2758 2815 
Q 2500 3097 2075 3097 
Q 1594 3097 1305 2825 
Q 1016 2553 972 2059 
L 3022 2063 
z
" transform="scale(0.015625)"/>
       <path id="DejaVuSans-73" d="M 2834 3397 
L 2834 2853 
Q 2591 2978 2328 3040 
Q 2066 3103 1784 3103 
Q 1356 3103 1142 2972 
Q 928 2841 928 2578 
Q 928 2378 1081 2264 
Q 1234 2150 1697 2047 
L 1894 2003 
Q 2506 1872 2764 1633 
Q 3022 1394 3022 966 
Q 3022 478 2636 193 
Q 2250 -91 1575 -91 
Q 1294 -91 989 -36 
Q 684 19 347 128 
L 347 722 
Q 666 556 975 473 
Q 1284 391 1588 391 
Q 1994 391 2212 530 
Q 2431 669 2431 922 
Q 2431 1156 2273 1281 
Q 2116 1406 1581 1522 
L 1381 1569 
Q 847 1681 609 1914 
Q 372 2147 372 2553 
Q 372 3047 722 3315 
Q 1072 3584 1716 3584 
Q 2034 3584 2315 3537 
Q 2597 3491 2834 3397 
z
" transform="scale(0.015625)"/>
      </defs>
      <use xlink:href="#DejaVuSans-25"/>
      <use xlink:href="#DejaVuSans-20" x="95.019531"/>
      <use xlink:href="#DejaVuSans-6b" x="126.806641"/>
      <use xlink:href="#DejaVuSans-6e" x="184.716797"/>
      <use xlink:href="#DejaVuSans-6f" x="248.095703"/>
      <use xlink:href="#DejaVuSans-77" x="309.277344"/>
      <use xlink:href="#DejaVuSans-6e" x="391.064453"/>
      <use xlink:href="#DejaVuSans-20" x="454.443359"/>
      <use xlink:href="#DejaVuSans-76" x="486.230469"/>
      <use xlink:href="#DejaVuSans-75" x="545.410156"/>
      <use xlink:href="#DejaVuSans-6c" x="608.789062"/>
      <use xlink:href="#DejaVuSans-6e" x="636.572266"/>
      <use xlink:href="#DejaVuSans-2e" x="699.951172"/>
      <use xlink:href="#DejaVuSans-20" x="731.738281"/>
      <use xlink:href="#DejaVuSans-64" x="763.525391"/>
      <use xlink:href="#DejaVuSans-72" x="827.001953"/>
      <use xlink:href="#DejaVuSans-69" x="868.115234"/>
      <use xlink:href="#DejaVuSans-76" x="895.898438"/>
      <use xlink:href="#DejaVuSans-65" x="955.078125"/>
      <use xlink:href="#DejaVuSans-72" x="1016.601562"/>
      <use xlink:href="#DejaVuSans-73" x="1057.714844"/>
     </g>
    </g>
   </g>
   <g id="matplotlib.axis_2">
    <g id="ytick_1">
     <g id="line2d_7">
      <defs>
       <path id="m0fb6e33eab" d="M 0 0 
L -3.5 0 
" style="stroke: #000000; stroke-width: 0.8"/>
      </defs>
      <g>
       <use xlink:href="#m0fb6e33eab" x="184.3" y="161.443256" style="stroke: #000000; stroke-width: 0.8"/>
      </g>
     </g>
     <g id="text_8">
      <!-- WdfIoQueueCreate -->
      <g transform="translate(82.398438 165.242475) scale(0.1 -0.1)">
       <defs>
        <path id="DejaVuSans-57" d="M 213 4666 
L 850 4666 
L 1831 722 
L 2809 4666 
L 3519 4666 
L 4500 722 
L 5478 4666 
L 6119 4666 
L 4947 0 
L 4153 0 
L 3169 4050 
L 2175 0 
L 1381 0 
L 213 4666 
z
" transform="scale(0.015625)"/>
        <path id="DejaVuSans-66" d="M 2375 4863 
L 2375 4384 
L 1825 4384 
Q 1516 4384 1395 4259 
Q 1275 4134 1275 3809 
L 1275 3500 
L 2222 3500 
L 2222 3053 
L 1275 3053 
L 1275 0 
L 697 0 
L 697 3053 
L 147 3053 
L 147 3500 
L 697 3500 
L 697 3744 
Q 697 4328 969 4595 
Q 1241 4863 1831 4863 
L 2375 4863 
z
" transform="scale(0.015625)"/>
        <path id="DejaVuSans-49" d="M 628 4666 
L 1259 4666 
L 1259 0 
L 628 0 
L 628 4666 
z
" transform="scale(0.015625)"/>
        <path id="DejaVuSans-51" d="M 2522 4238 
Q 1834 4238 1429 3725 
Q 1025 3213 1025 2328 
Q 1025 1447 1429 934 
Q 1834 422 2522 422 
Q 3209 422 3611 934 
Q 4013 1447 4013 2328 
Q 4013 3213 3611 3725 
Q 3209 4238 2522 4238 
z
M 3406 84 
L 4238 -825 
L 3475 -825 
L 2784 -78 
Q 2681 -84 2626 -87 
Q 2572 -91 2522 -91 
Q 1538 -91 948 567 
Q 359 1225 359 2328 
Q 359 3434 948 4092 
Q 1538 4750 2522 4750 
Q 3503 4750 4090 4092 
Q 4678 3434 4678 2328 
Q 4678 1516 4351 937 
Q 4025 359 3406 84 
z
" transform="scale(0.015625)"/>
        <path id="DejaVuSans-43" d="M 4122 4306 
L 4122 3641 
Q 3803 3938 3442 4084 
Q 3081 4231 2675 4231 
Q 1875 4231 1450 3742 
Q 1025 3253 1025 2328 
Q 1025 1406 1450 917 
Q 1875 428 2675 428 
Q 3081 428 3442 575 
Q 3803 722 4122 1019 
L 4122 359 
Q 3791 134 3420 21 
Q 3050 -91 2638 -91 
Q 1578 -91 968 557 
Q 359 1206 359 2328 
Q 359 3453 968 4101 
Q 1578 4750 2638 4750 
Q 3056 4750 3426 4639 
Q 3797 4528 4122 4306 
z
" transform="scale(0.015625)"/>
        <path id="DejaVuSans-61" d="M 2194 1759 
Q 1497 1759 1228 1600 
Q 959 1441 959 1056 
Q 959 750 1161 570 
Q 1363 391 1709 391 
Q 2188 391 2477 730 
Q 2766 1069 2766 1631 
L 2766 1759 
L 2194 1759 
z
M 3341 1997 
L 3341 0 
L 2766 0 
L 2766 531 
Q 2569 213 2275 61 
Q 1981 -91 1556 -91 
Q 1019 -91 701 211 
Q 384 513 384 1019 
Q 384 1609 779 1909 
Q 1175 2209 1959 2209 
L 2766 2209 
L 2766 2266 
Q 2766 2663 2505 2880 
Q 2244 3097 1772 3097 
Q 1472 3097 1187 3025 
Q 903 2953 641 2809 
L 641 3341 
Q 956 3463 1253 3523 
Q 1550 3584 1831 3584 
Q 2591 3584 2966 3190 
Q 3341 2797 3341 1997 
z
" transform="scale(0.015625)"/>
        <path id="DejaVuSans-74" d="M 1172 4494 
L 1172 3500 
L 2356 3500 
L 2356 3053 
L 1172 3053 
L 1172 1153 
Q 1172 725 1289 603 
Q 1406 481 1766 481 
L 2356 481 
L 2356 0 
L 1766 0 
Q 1100 0 847 248 
Q 594 497 594 1153 
L 594 3053 
L 172 3053 
L 172 3500 
L 594 3500 
L 594 4494 
L 1172 4494 
z
" transform="scale(0.015625)"/>
       </defs>
       <use xlink:href="#DejaVuSans-57"/>
       <use xlink:href="#DejaVuSans-64" x="98.876953"/>
       <use xlink:href="#DejaVuSans-66" x="162.353516"/>
       <use xlink:href="#DejaVuSans-49" x="197.558594"/>
       <use xlink:href="#DejaVuSans-6f" x="227.050781"/>
       <use xlink:href="#DejaVuSans-51" x="288.232422"/>
       <use xlink:href="#DejaVuSans-75" x="366.943359"/>
       <use xlink:href="#DejaVuSans-65" x="430.322266"/>
       <use xlink:href="#DejaVuSans-75" x="491.845703"/>
       <use xlink:href="#DejaVuSans-65" x="555.224609"/>
       <use xlink:href="#DejaVuSans-43" x="616.748047"/>
       <use xlink:href="#DejaVuSans-72" x="686.572266"/>
       <use xlink:href="#DejaVuSans-65" x="725.435547"/>
       <use xlink:href="#DejaVuSans-61" x="786.958984"/>
       <use xlink:href="#DejaVuSans-74" x="848.238281"/>
       <use xlink:href="#DejaVuSans-65" x="887.447266"/>
      </g>
     </g>
    </g>
    <g id="ytick_2">
     <g id="line2d_8">
      <g>
       <use xlink:href="#m0fb6e33eab" x="184.3" y="147.638605" style="stroke: #000000; stroke-width: 0.8"/>
      </g>
     </g>
     <g id="text_9">
      <!-- IoCreateDevice -->
      <g transform="translate(100.80625 151.437823) scale(0.1 -0.1)">
       <defs>
        <path id="DejaVuSans-44" d="M 1259 4147 
L 1259 519 
L 2022 519 
Q 2988 519 3436 956 
Q 3884 1394 3884 2338 
Q 3884 3275 3436 3711 
Q 2988 4147 2022 4147 
L 1259 4147 
z
M 628 4666 
L 1925 4666 
Q 3281 4666 3915 4102 
Q 4550 3538 4550 2338 
Q 4550 1131 3912 565 
Q 3275 0 1925 0 
L 628 0 
L 628 4666 
z
" transform="scale(0.015625)"/>
        <path id="DejaVuSans-63" d="M 3122 3366 
L 3122 2828 
Q 2878 2963 2633 3030 
Q 2388 3097 2138 3097 
Q 1578 3097 1268 2742 
Q 959 2388 959 1747 
Q 959 1106 1268 751 
Q 1578 397 2138 397 
Q 2388 397 2633 464 
Q 2878 531 3122 666 
L 3122 134 
Q 2881 22 2623 -34 
Q 2366 -91 2075 -91 
Q 1284 -91 818 406 
Q 353 903 353 1747 
Q 353 2603 823 3093 
Q 1294 3584 2113 3584 
Q 2378 3584 2631 3529 
Q 2884 3475 3122 3366 
z
" transform="scale(0.015625)"/>
       </defs>
       <use xlink:href="#DejaVuSans-49"/>
       <use xlink:href="#DejaVuSans-6f" x="29.492188"/>
       <use xlink:href="#DejaVuSans-43" x="90.673828"/>
       <use xlink:href="#DejaVuSans-72" x="160.498047"/>
       <use xlink:href="#DejaVuSans-65" x="199.361328"/>
       <use xlink:href="#DejaVuSans-61" x="260.884766"/>
       <use xlink:href="#DejaVuSans-74" x="322.164062"/>
       <use xlink:href="#DejaVuSans-65" x="361.373047"/>
       <use xlink:href="#DejaVuSans-44" x="422.896484"/>
       <use xlink:href="#DejaVuSans-65" x="499.898438"/>
       <use xlink:href="#DejaVuSans-76" x="561.421875"/>
       <use xlink:href="#DejaVuSans-69" x="620.601562"/>
       <use xlink:href="#DejaVuSans-63" x="648.384766"/>
       <use xlink:href="#DejaVuSans-65" x="703.365234"/>
      </g>
     </g>
    </g>
    <g id="ytick_3">
     <g id="line2d_9">
      <g>
       <use xlink:href="#m0fb6e33eab" x="184.3" y="133.833953" style="stroke: #000000; stroke-width: 0.8"/>
      </g>
     </g>
     <g id="text_10">
      <!-- WdfDeviceCreateDeviceInterface -->
      <g transform="translate(11.145312 137.633172) scale(0.1 -0.1)">
       <use xlink:href="#DejaVuSans-57"/>
       <use xlink:href="#DejaVuSans-64" x="98.876953"/>
       <use xlink:href="#DejaVuSans-66" x="162.353516"/>
       <use xlink:href="#DejaVuSans-44" x="197.558594"/>
       <use xlink:href="#DejaVuSans-65" x="274.560547"/>
       <use xlink:href="#DejaVuSans-76" x="336.083984"/>
       <use xlink:href="#DejaVuSans-69" x="395.263672"/>
       <use xlink:href="#DejaVuSans-63" x="423.046875"/>
       <use xlink:href="#DejaVuSans-65" x="478.027344"/>
       <use xlink:href="#DejaVuSans-43" x="539.550781"/>
       <use xlink:href="#DejaVuSans-72" x="609.375"/>
       <use xlink:href="#DejaVuSans-65" x="648.238281"/>
       <use xlink:href="#DejaVuSans-61" x="709.761719"/>
       <use xlink:href="#DejaVuSans-74" x="771.041016"/>
       <use xlink:href="#DejaVuSans-65" x="810.25"/>
       <use xlink:href="#DejaVuSans-44" x="871.773438"/>
       <use xlink:href="#DejaVuSans-65" x="948.775391"/>
       <use xlink:href="#DejaVuSans-76" x="1010.298828"/>
       <use xlink:href="#DejaVuSans-69" x="1069.478516"/>
       <use xlink:href="#DejaVuSans-63" x="1097.261719"/>
       <use xlink:href="#DejaVuSans-65" x="1152.242188"/>
       <use xlink:href="#DejaVuSans-49" x="1213.765625"/>
       <use xlink:href="#DejaVuSans-6e" x="1243.257812"/>
       <use xlink:href="#DejaVuSans-74" x="1306.636719"/>
       <use xlink:href="#DejaVuSans-65" x="1345.845703"/>
       <use xlink:href="#DejaVuSans-72" x="1407.369141"/>
       <use xlink:href="#DejaVuSans-66" x="1448.482422"/>
       <use xlink:href="#DejaVuSans-61" x="1483.6875"/>
       <use xlink:href="#DejaVuSans-63" x="1544.966797"/>
       <use xlink:href="#DejaVuSans-65" x="1599.947266"/>
      </g>
     </g>
    </g>
    <g id="ytick_4">
     <g id="line2d_10">
      <g>
       <use xlink:href="#m0fb6e33eab" x="184.3" y="120.029302" style="stroke: #000000; stroke-width: 0.8"/>
      </g>
     </g>
     <g id="text_11">
      <!-- SePrivilegeCheck -->
      <g transform="translate(91.1625 123.828521) scale(0.1 -0.1)">
       <defs>
        <path id="DejaVuSans-53" d="M 3425 4513 
L 3425 3897 
Q 3066 4069 2747 4153 
Q 2428 4238 2131 4238 
Q 1616 4238 1336 4038 
Q 1056 3838 1056 3469 
Q 1056 3159 1242 3001 
Q 1428 2844 1947 2747 
L 2328 2669 
Q 3034 2534 3370 2195 
Q 3706 1856 3706 1288 
Q 3706 609 3251 259 
Q 2797 -91 1919 -91 
Q 1588 -91 1214 -16 
Q 841 59 441 206 
L 441 856 
Q 825 641 1194 531 
Q 1563 422 1919 422 
Q 2459 422 2753 634 
Q 3047 847 3047 1241 
Q 3047 1584 2836 1778 
Q 2625 1972 2144 2069 
L 1759 2144 
Q 1053 2284 737 2584 
Q 422 2884 422 3419 
Q 422 4038 858 4394 
Q 1294 4750 2059 4750 
Q 2388 4750 2728 4690 
Q 3069 4631 3425 4513 
z
" transform="scale(0.015625)"/>
        <path id="DejaVuSans-50" d="M 1259 4147 
L 1259 2394 
L 2053 2394 
Q 2494 2394 2734 2622 
Q 2975 2850 2975 3272 
Q 2975 3691 2734 3919 
Q 2494 4147 2053 4147 
L 1259 4147 
z
M 628 4666 
L 2053 4666 
Q 2838 4666 3239 4311 
Q 3641 3956 3641 3272 
Q 3641 2581 3239 2228 
Q 2838 1875 2053 1875 
L 1259 1875 
L 1259 0 
L 628 0 
L 628 4666 
z
" transform="scale(0.015625)"/>
        <path id="DejaVuSans-67" d="M 2906 1791 
Q 2906 2416 2648 2759 
Q 2391 3103 1925 3103 
Q 1463 3103 1205 2759 
Q 947 2416 947 1791 
Q 947 1169 1205 825 
Q 1463 481 1925 481 
Q 2391 481 2648 825 
Q 2906 1169 2906 1791 
z
M 3481 434 
Q 3481 -459 3084 -895 
Q 2688 -1331 1869 -1331 
Q 1566 -1331 1297 -1286 
Q 1028 -1241 775 -1147 
L 775 -588 
Q 1028 -725 1275 -790 
Q 1522 -856 1778 -856 
Q 2344 -856 2625 -561 
Q 2906 -266 2906 331 
L 2906 616 
Q 2728 306 2450 153 
Q 2172 0 1784 0 
Q 1141 0 747 490 
Q 353 981 353 1791 
Q 353 2603 747 3093 
Q 1141 3584 1784 3584 
Q 2172 3584 2450 3431 
Q 2728 3278 2906 2969 
L 2906 3500 
L 3481 3500 
L 3481 434 
z
" transform="scale(0.015625)"/>
        <path id="DejaVuSans-68" d="M 3513 2113 
L 3513 0 
L 2938 0 
L 2938 2094 
Q 2938 2591 2744 2837 
Q 2550 3084 2163 3084 
Q 1697 3084 1428 2787 
Q 1159 2491 1159 1978 
L 1159 0 
L 581 0 
L 581 4863 
L 1159 4863 
L 1159 2956 
Q 1366 3272 1645 3428 
Q 1925 3584 2291 3584 
Q 2894 3584 3203 3211 
Q 3513 2838 3513 2113 
z
" transform="scale(0.015625)"/>
       </defs>
       <use xlink:href="#DejaVuSans-53"/>
       <use xlink:href="#DejaVuSans-65" x="63.476562"/>
       <use xlink:href="#DejaVuSans-50" x="125"/>
       <use xlink:href="#DejaVuSans-72" x="183.552734"/>
       <use xlink:href="#DejaVuSans-69" x="224.666016"/>
       <use xlink:href="#DejaVuSans-76" x="252.449219"/>
       <use xlink:href="#DejaVuSans-69" x="311.628906"/>
       <use xlink:href="#DejaVuSans-6c" x="339.412109"/>
       <use xlink:href="#DejaVuSans-65" x="367.195312"/>
       <use xlink:href="#DejaVuSans-67" x="428.71875"/>
       <use xlink:href="#DejaVuSans-65" x="492.195312"/>
       <use xlink:href="#DejaVuSans-43" x="553.71875"/>
       <use xlink:href="#DejaVuSans-68" x="623.542969"/>
       <use xlink:href="#DejaVuSans-65" x="686.921875"/>
       <use xlink:href="#DejaVuSans-63" x="748.445312"/>
       <use xlink:href="#DejaVuSans-6b" x="803.425781"/>
      </g>
     </g>
    </g>
    <g id="ytick_5">
     <g id="line2d_11">
      <g>
       <use xlink:href="#m0fb6e33eab" x="184.3" y="106.224651" style="stroke: #000000; stroke-width: 0.8"/>
      </g>
     </g>
     <g id="text_12">
      <!-- IoAllocateMdl -->
      <g transform="translate(110.260938 110.02387) scale(0.1 -0.1)">
       <defs>
        <path id="DejaVuSans-41" d="M 2188 4044 
L 1331 1722 
L 3047 1722 
L 2188 4044 
z
M 1831 4666 
L 2547 4666 
L 4325 0 
L 3669 0 
L 3244 1197 
L 1141 1197 
L 716 0 
L 50 0 
L 1831 4666 
z
" transform="scale(0.015625)"/>
        <path id="DejaVuSans-4d" d="M 628 4666 
L 1569 4666 
L 2759 1491 
L 3956 4666 
L 4897 4666 
L 4897 0 
L 4281 0 
L 4281 4097 
L 3078 897 
L 2444 897 
L 1241 4097 
L 1241 0 
L 628 0 
L 628 4666 
z
" transform="scale(0.015625)"/>
       </defs>
       <use xlink:href="#DejaVuSans-49"/>
       <use xlink:href="#DejaVuSans-6f" x="29.492188"/>
       <use xlink:href="#DejaVuSans-41" x="90.673828"/>
       <use xlink:href="#DejaVuSans-6c" x="159.082031"/>
       <use xlink:href="#DejaVuSans-6c" x="186.865234"/>
       <use xlink:href="#DejaVuSans-6f" x="214.648438"/>
       <use xlink:href="#DejaVuSans-63" x="275.830078"/>
       <use xlink:href="#DejaVuSans-61" x="330.810547"/>
       <use xlink:href="#DejaVuSans-74" x="392.089844"/>
       <use xlink:href="#DejaVuSans-65" x="431.298828"/>
       <use xlink:href="#DejaVuSans-4d" x="492.822266"/>
       <use xlink:href="#DejaVuSans-64" x="579.101562"/>
       <use xlink:href="#DejaVuSans-6c" x="642.578125"/>
      </g>
     </g>
    </g>
    <g id="ytick_6">
     <g id="line2d_12">
      <g>
       <use xlink:href="#m0fb6e33eab" x="184.3" y="92.42" style="stroke: #000000; stroke-width: 0.8"/>
      </g>
     </g>
     <g id="text_13">
      <!-- ZwOpenSection -->
      <g transform="translate(98.40625 96.219219) scale(0.1 -0.1)">
       <defs>
        <path id="DejaVuSans-5a" d="M 359 4666 
L 4025 4666 
L 4025 4184 
L 1075 531 
L 4097 531 
L 4097 0 
L 288 0 
L 288 481 
L 3238 4134 
L 359 4134 
L 359 4666 
z
" transform="scale(0.015625)"/>
        <path id="DejaVuSans-4f" d="M 2522 4238 
Q 1834 4238 1429 3725 
Q 1025 3213 1025 2328 
Q 1025 1447 1429 934 
Q 1834 422 2522 422 
Q 3209 422 3611 934 
Q 4013 1447 4013 2328 
Q 4013 3213 3611 3725 
Q 3209 4238 2522 4238 
z
M 2522 4750 
Q 3503 4750 4090 4092 
Q 4678 3434 4678 2328 
Q 4678 1225 4090 567 
Q 3503 -91 2522 -91 
Q 1538 -91 948 565 
Q 359 1222 359 2328 
Q 359 3434 948 4092 
Q 1538 4750 2522 4750 
z
" transform="scale(0.015625)"/>
        <path id="DejaVuSans-70" d="M 1159 525 
L 1159 -1331 
L 581 -1331 
L 581 3500 
L 1159 3500 
L 1159 2969 
Q 1341 3281 1617 3432 
Q 1894 3584 2278 3584 
Q 2916 3584 3314 3078 
Q 3713 2572 3713 1747 
Q 3713 922 3314 415 
Q 2916 -91 2278 -91 
Q 1894 -91 1617 61 
Q 1341 213 1159 525 
z
M 3116 1747 
Q 3116 2381 2855 2742 
Q 2594 3103 2138 3103 
Q 1681 3103 1420 2742 
Q 1159 2381 1159 1747 
Q 1159 1113 1420 752 
Q 1681 391 2138 391 
Q 2594 391 2855 752 
Q 3116 1113 3116 1747 
z
" transform="scale(0.015625)"/>
       </defs>
       <use xlink:href="#DejaVuSans-5a"/>
       <use xlink:href="#DejaVuSans-77" x="68.505859"/>
       <use xlink:href="#DejaVuSans-4f" x="150.292969"/>
       <use xlink:href="#DejaVuSans-70" x="229.003906"/>
       <use xlink:href="#DejaVuSans-65" x="292.480469"/>
       <use xlink:href="#DejaVuSans-6e" x="354.003906"/>
       <use xlink:href="#DejaVuSans-53" x="417.382812"/>
       <use xlink:href="#DejaVuSans-65" x="480.859375"/>
       <use xlink:href="#DejaVuSans-63" x="542.382812"/>
       <use xlink:href="#DejaVuSans-74" x="597.363281"/>
       <use xlink:href="#DejaVuSans-69" x="636.572266"/>
       <use xlink:href="#DejaVuSans-6f" x="664.355469"/>
       <use xlink:href="#DejaVuSans-6e" x="725.537109"/>
      </g>
     </g>
    </g>
    <g id="ytick_7">
     <g id="line2d_13">
      <g>
       <use xlink:href="#m0fb6e33eab" x="184.3" y="78.615349" style="stroke: #000000; stroke-width: 0.8"/>
      </g>
     </g>
     <g id="text_14">
      <!-- WdfDeviceCreateSymbolicLink -->
      <g transform="translate(24.110938 82.414568) scale(0.1 -0.1)">
       <defs>
        <path id="DejaVuSans-79" d="M 2059 -325 
Q 1816 -950 1584 -1140 
Q 1353 -1331 966 -1331 
L 506 -1331 
L 506 -850 
L 844 -850 
Q 1081 -850 1212 -737 
Q 1344 -625 1503 -206 
L 1606 56 
L 191 3500 
L 800 3500 
L 1894 763 
L 2988 3500 
L 3597 3500 
L 2059 -325 
z
" transform="scale(0.015625)"/>
        <path id="DejaVuSans-6d" d="M 3328 2828 
Q 3544 3216 3844 3400 
Q 4144 3584 4550 3584 
Q 5097 3584 5394 3201 
Q 5691 2819 5691 2113 
L 5691 0 
L 5113 0 
L 5113 2094 
Q 5113 2597 4934 2840 
Q 4756 3084 4391 3084 
Q 3944 3084 3684 2787 
Q 3425 2491 3425 1978 
L 3425 0 
L 2847 0 
L 2847 2094 
Q 2847 2600 2669 2842 
Q 2491 3084 2119 3084 
Q 1678 3084 1418 2786 
Q 1159 2488 1159 1978 
L 1159 0 
L 581 0 
L 581 3500 
L 1159 3500 
L 1159 2956 
Q 1356 3278 1631 3431 
Q 1906 3584 2284 3584 
Q 2666 3584 2933 3390 
Q 3200 3197 3328 2828 
z
" transform="scale(0.015625)"/>
        <path id="DejaVuSans-62" d="M 3116 1747 
Q 3116 2381 2855 2742 
Q 2594 3103 2138 3103 
Q 1681 3103 1420 2742 
Q 1159 2381 1159 1747 
Q 1159 1113 1420 752 
Q 1681 391 2138 391 
Q 2594 391 2855 752 
Q 3116 1113 3116 1747 
z
M 1159 2969 
Q 1341 3281 1617 3432 
Q 1894 3584 2278 3584 
Q 2916 3584 3314 3078 
Q 3713 2572 3713 1747 
Q 3713 922 3314 415 
Q 2916 -91 2278 -91 
Q 1894 -91 1617 61 
Q 1341 213 1159 525 
L 1159 0 
L 581 0 
L 581 4863 
L 1159 4863 
L 1159 2969 
z
" transform="scale(0.015625)"/>
        <path id="DejaVuSans-4c" d="M 628 4666 
L 1259 4666 
L 1259 531 
L 3531 531 
L 3531 0 
L 628 0 
L 628 4666 
z
" transform="scale(0.015625)"/>
       </defs>
       <use xlink:href="#DejaVuSans-57"/>
       <use xlink:href="#DejaVuSans-64" x="98.876953"/>
       <use xlink:href="#DejaVuSans-66" x="162.353516"/>
       <use xlink:href="#DejaVuSans-44" x="197.558594"/>
       <use xlink:href="#DejaVuSans-65" x="274.560547"/>
       <use xlink:href="#DejaVuSans-76" x="336.083984"/>
       <use xlink:href="#DejaVuSans-69" x="395.263672"/>
       <use xlink:href="#DejaVuSans-63" x="423.046875"/>
       <use xlink:href="#DejaVuSans-65" x="478.027344"/>
       <use xlink:href="#DejaVuSans-43" x="539.550781"/>
       <use xlink:href="#DejaVuSans-72" x="609.375"/>
       <use xlink:href="#DejaVuSans-65" x="648.238281"/>
       <use xlink:href="#DejaVuSans-61" x="709.761719"/>
       <use xlink:href="#DejaVuSans-74" x="771.041016"/>
       <use xlink:href="#DejaVuSans-65" x="810.25"/>
       <use xlink:href="#DejaVuSans-53" x="871.773438"/>
       <use xlink:href="#DejaVuSans-79" x="935.25"/>
       <use xlink:href="#DejaVuSans-6d" x="994.429688"/>
       <use xlink:href="#DejaVuSans-62" x="1091.841797"/>
       <use xlink:href="#DejaVuSans-6f" x="1155.318359"/>
       <use xlink:href="#DejaVuSans-6c" x="1216.5"/>
       <use xlink:href="#DejaVuSans-69" x="1244.283203"/>
       <use xlink:href="#DejaVuSans-63" x="1272.066406"/>
       <use xlink:href="#DejaVuSans-4c" x="1327.046875"/>
       <use xlink:href="#DejaVuSans-69" x="1382.759766"/>
       <use xlink:href="#DejaVuSans-6e" x="1410.542969"/>
       <use xlink:href="#DejaVuSans-6b" x="1473.921875"/>
      </g>
     </g>
    </g>
    <g id="ytick_8">
     <g id="line2d_14">
      <g>
       <use xlink:href="#m0fb6e33eab" x="184.3" y="64.810698" style="stroke: #000000; stroke-width: 0.8"/>
      </g>
     </g>
     <g id="text_15">
      <!-- ZwMapViewOfSection -->
      <g transform="translate(68.895313 68.609916) scale(0.1 -0.1)">
       <defs>
        <path id="DejaVuSans-56" d="M 1831 0 
L 50 4666 
L 709 4666 
L 2188 738 
L 3669 4666 
L 4325 4666 
L 2547 0 
L 1831 0 
z
" transform="scale(0.015625)"/>
       </defs>
       <use xlink:href="#DejaVuSans-5a"/>
       <use xlink:href="#DejaVuSans-77" x="68.505859"/>
       <use xlink:href="#DejaVuSans-4d" x="150.292969"/>
       <use xlink:href="#DejaVuSans-61" x="236.572266"/>
       <use xlink:href="#DejaVuSans-70" x="297.851562"/>
       <use xlink:href="#DejaVuSans-56" x="361.328125"/>
       <use xlink:href="#DejaVuSans-69" x="427.486328"/>
       <use xlink:href="#DejaVuSans-65" x="455.269531"/>
       <use xlink:href="#DejaVuSans-77" x="516.792969"/>
       <use xlink:href="#DejaVuSans-4f" x="598.580078"/>
       <use xlink:href="#DejaVuSans-66" x="677.291016"/>
       <use xlink:href="#DejaVuSans-53" x="712.496094"/>
       <use xlink:href="#DejaVuSans-65" x="775.972656"/>
       <use xlink:href="#DejaVuSans-63" x="837.496094"/>
       <use xlink:href="#DejaVuSans-74" x="892.476562"/>
       <use xlink:href="#DejaVuSans-69" x="931.685547"/>
       <use xlink:href="#DejaVuSans-6f" x="959.46875"/>
       <use xlink:href="#DejaVuSans-6e" x="1020.650391"/>
      </g>
     </g>
    </g>
    <g id="ytick_9">
     <g id="line2d_15">
      <g>
       <use xlink:href="#m0fb6e33eab" x="184.3" y="51.006047" style="stroke: #000000; stroke-width: 0.8"/>
      </g>
     </g>
     <g id="text_16">
      <!-- IoCreateSymbolicLink -->
      <g transform="translate(69 54.805265) scale(0.1 -0.1)">
       <use xlink:href="#DejaVuSans-49"/>
       <use xlink:href="#DejaVuSans-6f" x="29.492188"/>
       <use xlink:href="#DejaVuSans-43" x="90.673828"/>
       <use xlink:href="#DejaVuSans-72" x="160.498047"/>
       <use xlink:href="#DejaVuSans-65" x="199.361328"/>
       <use xlink:href="#DejaVuSans-61" x="260.884766"/>
       <use xlink:href="#DejaVuSans-74" x="322.164062"/>
       <use xlink:href="#DejaVuSans-65" x="361.373047"/>
       <use xlink:href="#DejaVuSans-53" x="422.896484"/>
       <use xlink:href="#DejaVuSans-79" x="486.373047"/>
       <use xlink:href="#DejaVuSans-6d" x="545.552734"/>
       <use xlink:href="#DejaVuSans-62" x="642.964844"/>
       <use xlink:href="#DejaVuSans-6f" x="706.441406"/>
       <use xlink:href="#DejaVuSans-6c" x="767.623047"/>
       <use xlink:href="#DejaVuSans-69" x="795.40625"/>
       <use xlink:href="#DejaVuSans-63" x="823.189453"/>
       <use xlink:href="#DejaVuSans-4c" x="878.169922"/>
       <use xlink:href="#DejaVuSans-69" x="933.882812"/>
       <use xlink:href="#DejaVuSans-6e" x="961.666016"/>
       <use xlink:href="#DejaVuSans-6b" x="1025.044922"/>
      </g>
     </g>
    </g>
    <g id="ytick_10">
     <g id="line2d_16">
      <g>
       <use xlink:href="#m0fb6e33eab" x="184.3" y="37.201395" style="stroke: #000000; stroke-width: 0.8"/>
      </g>
     </g>
     <g id="text_17">
      <!-- MmMapIoSpaceEx -->
      <g transform="translate(86.04375 41.000614) scale(0.1 -0.1)">
       <defs>
        <path id="DejaVuSans-45" d="M 628 4666 
L 3578 4666 
L 3578 4134 
L 1259 4134 
L 1259 2753 
L 3481 2753 
L 3481 2222 
L 1259 2222 
L 1259 531 
L 3634 531 
L 3634 0 
L 628 0 
L 628 4666 
z
" transform="scale(0.015625)"/>
        <path id="DejaVuSans-78" d="M 3513 3500 
L 2247 1797 
L 3578 0 
L 2900 0 
L 1881 1375 
L 863 0 
L 184 0 
L 1544 1831 
L 300 3500 
L 978 3500 
L 1906 2253 
L 2834 3500 
L 3513 3500 
z
" transform="scale(0.015625)"/>
       </defs>
       <use xlink:href="#DejaVuSans-4d"/>
       <use xlink:href="#DejaVuSans-6d" x="86.279297"/>
       <use xlink:href="#DejaVuSans-4d" x="183.691406"/>
       <use xlink:href="#DejaVuSans-61" x="269.970703"/>
       <use xlink:href="#DejaVuSans-70" x="331.25"/>
       <use xlink:href="#DejaVuSans-49" x="394.726562"/>
       <use xlink:href="#DejaVuSans-6f" x="424.21875"/>
       <use xlink:href="#DejaVuSans-53" x="485.400391"/>
       <use xlink:href="#DejaVuSans-70" x="548.876953"/>
       <use xlink:href="#DejaVuSans-61" x="612.353516"/>
       <use xlink:href="#DejaVuSans-63" x="673.632812"/>
       <use xlink:href="#DejaVuSans-65" x="728.613281"/>
       <use xlink:href="#DejaVuSans-45" x="790.136719"/>
       <use xlink:href="#DejaVuSans-78" x="853.320312"/>
      </g>
     </g>
    </g>
    <g id="ytick_11">
     <g id="line2d_17">
      <g>
       <use xlink:href="#m0fb6e33eab" x="184.3" y="23.396744" style="stroke: #000000; stroke-width: 0.8"/>
      </g>
     </g>
     <g id="text_18">
      <!-- MmMapIoSpace -->
      <g transform="translate(98.28125 27.195963) scale(0.1 -0.1)">
       <use xlink:href="#DejaVuSans-4d"/>
       <use xlink:href="#DejaVuSans-6d" x="86.279297"/>
       <use xlink:href="#DejaVuSans-4d" x="183.691406"/>
       <use xlink:href="#DejaVuSans-61" x="269.970703"/>
       <use xlink:href="#DejaVuSans-70" x="331.25"/>
       <use xlink:href="#DejaVuSans-49" x="394.726562"/>
       <use xlink:href="#DejaVuSans-6f" x="424.21875"/>
       <use xlink:href="#DejaVuSans-53" x="485.400391"/>
       <use xlink:href="#DejaVuSans-70" x="548.876953"/>
       <use xlink:href="#DejaVuSans-61" x="612.353516"/>
       <use xlink:href="#DejaVuSans-63" x="673.632812"/>
       <use xlink:href="#DejaVuSans-65" x="728.613281"/>
      </g>
     </g>
    </g>
   </g>
   <g id="patch_36">
    <path d="M 184.3 174.04 
L 184.3 10.8 
" style="fill: none; stroke: #000000; stroke-width: 0.8; stroke-linejoin: miter; stroke-linecap: square"/>
   </g>
   <g id="patch_37">
    <path d="M 366.634015 174.04 
L 366.634015 10.8 
" style="fill: none; stroke: #000000; stroke-width: 0.8; stroke-linejoin: miter; stroke-linecap: square"/>
   </g>
   <g id="patch_38">
    <path d="M 184.3 174.04 
L 366.634015 174.04 
" style="fill: none; stroke: #000000; stroke-width: 0.8; stroke-linejoin: miter; stroke-linecap: square"/>
   </g>
   <g id="patch_39">
    <path d="M 184.3 10.8 
L 366.634015 10.8 
" style="fill: none; stroke: #000000; stroke-width: 0.8; stroke-linejoin: miter; stroke-linecap: square"/>
   </g>
  </g>
  <g id="axes_2">
   <g id="patch_40">
    <path d="M 380.934015 174.04 
L 563.26803 174.04 
L 563.26803 10.8 
L 380.934015 10.8 
z
" style="fill: #ffffff"/>
   </g>
   <g id="patch_41">
    <path d="M 380.934015 163.168837 
L 554.585458 163.168837 
L 554.585458 159.717674 
L 380.934015 159.717674 
z
" clip-path="url(#pe207481131)" style="fill: #ff7f0e"/>
   </g>
   <g id="patch_42">
    <path d="M 380.934015 149.364186 
L 382.870095 149.364186 
L 382.870095 145.913023 
L 380.934015 145.913023 
z
" clip-path="url(#pe207481131)" style="fill: #ff7f0e"/>
   </g>
   <g id="patch_43">
    <path d="M 380.934015 135.559535 
L 515.665295 135.559535 
L 515.665295 132.108372 
L 380.934015 132.108372 
z
" clip-path="url(#pe207481131)" style="fill: #ff7f0e"/>
   </g>
   <g id="patch_44">
    <path d="M 380.934015 121.754884 
L 380.983658 121.754884 
L 380.983658 118.303721 
L 380.934015 118.303721 
z
" clip-path="url(#pe207481131)" style="fill: #ff7f0e"/>
   </g>
   <g id="patch_45">
    <path d="M 380.934015 107.950233 
L 414.194869 107.950233 
L 414.194869 104.49907 
L 380.934015 104.49907 
z
" clip-path="url(#pe207481131)" style="fill: #ff7f0e"/>
   </g>
   <g id="patch_46">
    <path d="M 380.934015 94.145581 
L 381.579375 94.145581 
L 381.579375 90.694419 
L 380.934015 90.694419 
z
" clip-path="url(#pe207481131)" style="fill: #ff7f0e"/>
   </g>
   <g id="patch_47">
    <path d="M 380.934015 80.34093 
L 462.348643 80.34093 
L 462.348643 76.889767 
L 380.934015 76.889767 
z
" clip-path="url(#pe207481131)" style="fill: #ff7f0e"/>
   </g>
   <g id="patch_48">
    <path d="M 380.934015 66.536279 
L 382.224735 66.536279 
L 382.224735 63.085116 
L 380.934015 63.085116 
z
" clip-path="url(#pe207481131)" style="fill: #ff7f0e"/>
   </g>
   <g id="patch_49">
    <path d="M 380.934015 52.731628 
L 384.309744 52.731628 
L 384.309744 49.280465 
L 380.934015 49.280465 
z
" clip-path="url(#pe207481131)" style="fill: #ff7f0e"/>
   </g>
   <g id="patch_50">
    <path d="M 380.934015 38.926977 
L 395.42979 38.926977 
L 395.42979 35.475814 
L 380.934015 35.475814 
z
" clip-path="url(#pe207481131)" style="fill: #ff7f0e"/>
   </g>
   <g id="patch_51">
    <path d="M 380.934015 25.122326 
L 419.754892 25.122326 
L 419.754892 21.671163 
L 380.934015 21.671163 
z
" clip-path="url(#pe207481131)" style="fill: #ff7f0e"/>
   </g>
   <g id="patch_52">
    <path d="M 380.934015 159.717674 
L 380.934015 159.717674 
L 380.934015 156.266512 
L 380.934015 156.266512 
z
" clip-path="url(#pe207481131)" style="fill: #2ca02c"/>
   </g>
   <g id="patch_53">
    <path d="M 380.934015 145.913023 
L 526.527198 145.913023 
L 526.527198 142.46186 
L 380.934015 142.46186 
z
" clip-path="url(#pe207481131)" style="fill: #2ca02c"/>
   </g>
   <g id="patch_54">
    <path d="M 380.934015 132.108372 
L 380.934015 132.108372 
L 380.934015 128.657209 
L 380.934015 128.657209 
z
" clip-path="url(#pe207481131)" style="fill: #2ca02c"/>
   </g>
   <g id="patch_55">
    <path d="M 380.934015 118.303721 
L 381.837519 118.303721 
L 381.837519 114.852558 
L 380.934015 114.852558 
z
" clip-path="url(#pe207481131)" style="fill: #2ca02c"/>
   </g>
   <g id="patch_56">
    <path d="M 380.934015 104.49907 
L 428.4325 104.49907 
L 428.4325 101.047907 
L 380.934015 101.047907 
z
" clip-path="url(#pe207481131)" style="fill: #2ca02c"/>
   </g>
   <g id="patch_57">
    <path d="M 380.934015 90.694419 
L 382.405436 90.694419 
L 382.405436 87.243256 
L 380.934015 87.243256 
z
" clip-path="url(#pe207481131)" style="fill: #2ca02c"/>
   </g>
   <g id="patch_58">
    <path d="M 380.934015 76.889767 
L 380.934015 76.889767 
L 380.934015 73.438605 
L 380.934015 73.438605 
z
" clip-path="url(#pe207481131)" style="fill: #2ca02c"/>
   </g>
   <g id="patch_59">
    <path d="M 380.934015 63.085116 
L 386.509924 63.085116 
L 386.509924 59.633953 
L 380.934015 59.633953 
z
" clip-path="url(#pe207481131)" style="fill: #2ca02c"/>
   </g>
   <g id="patch_60">
    <path d="M 380.934015 49.280465 
L 461.294224 49.280465 
L 461.294224 45.829302 
L 380.934015 45.829302 
z
" clip-path="url(#pe207481131)" style="fill: #2ca02c"/>
   </g>
   <g id="patch_61">
    <path d="M 380.934015 35.475814 
L 382.792652 35.475814 
L 382.792652 32.024651 
L 380.934015 32.024651 
z
" clip-path="url(#pe207481131)" style="fill: #2ca02c"/>
   </g>
   <g id="patch_62">
    <path d="M 380.934015 21.671163 
L 402.153447 21.671163 
L 402.153447 18.22 
L 380.934015 18.22 
z
" clip-path="url(#pe207481131)" style="fill: #2ca02c"/>
   </g>
   <g id="patch_63">
    <path d="M 380.934015 166.62 
L 380.934015 166.62 
L 380.934015 163.168837 
L 380.934015 163.168837 
z
" clip-path="url(#pe207481131)" style="fill: #1f77b4"/>
   </g>
   <g id="patch_64">
    <path d="M 380.934015 152.815349 
L 400.567989 152.815349 
L 400.567989 149.364186 
L 380.934015 149.364186 
z
" clip-path="url(#pe207481131)" style="fill: #1f77b4"/>
   </g>
   <g id="patch_65">
    <path d="M 380.934015 139.010698 
L 380.934015 139.010698 
L 380.934015 135.559535 
L 380.934015 135.559535 
z
" clip-path="url(#pe207481131)" style="fill: #1f77b4"/>
   </g>
   <g id="patch_66">
    <path d="M 380.934015 125.206047 
L 381.289458 125.206047 
L 381.289458 121.754884 
L 380.934015 121.754884 
z
" clip-path="url(#pe207481131)" style="fill: #1f77b4"/>
   </g>
   <g id="patch_67">
    <path d="M 380.934015 111.401395 
L 419.287967 111.401395 
L 419.287967 107.950233 
L 380.934015 107.950233 
z
" clip-path="url(#pe207481131)" style="fill: #1f77b4"/>
   </g>
   <g id="patch_68">
    <path d="M 380.934015 97.596744 
L 384.810032 97.596744 
L 384.810032 94.145581 
L 380.934015 94.145581 
z
" clip-path="url(#pe207481131)" style="fill: #1f77b4"/>
   </g>
   <g id="patch_69">
    <path d="M 380.934015 83.792093 
L 380.934015 83.792093 
L 380.934015 80.34093 
L 380.934015 80.34093 
z
" clip-path="url(#pe207481131)" style="fill: #1f77b4"/>
   </g>
   <g id="patch_70">
    <path d="M 380.934015 69.987442 
L 388.025942 69.987442 
L 388.025942 66.536279 
L 380.934015 66.536279 
z
" clip-path="url(#pe207481131)" style="fill: #1f77b4"/>
   </g>
   <g id="patch_71">
    <path d="M 380.934015 56.182791 
L 390.92026 56.182791 
L 390.92026 52.731628 
L 380.934015 52.731628 
z
" clip-path="url(#pe207481131)" style="fill: #1f77b4"/>
   </g>
   <g id="patch_72">
    <path d="M 380.934015 42.37814 
L 390.767928 42.37814 
L 390.767928 38.926977 
L 380.934015 38.926977 
z
" clip-path="url(#pe207481131)" style="fill: #1f77b4"/>
   </g>
   <g id="patch_73">
    <path d="M 380.934015 28.573488 
L 408.066136 28.573488 
L 408.066136 25.122326 
L 380.934015 25.122326 
z
" clip-path="url(#pe207481131)" style="fill: #1f77b4"/>
   </g>
   <g id="matplotlib.axis_3">
    <g id="xtick_7">
     <g id="line2d_18">
      <g>
       <use xlink:href="#m3b5c8719ae" x="380.934015" y="174.04" style="stroke: #000000; stroke-width: 0.8"/>
      </g>
     </g>
     <g id="text_19">
      <!-- 0 -->
      <g transform="translate(377.752765 188.638438) scale(0.1 -0.1)">
       <use xlink:href="#DejaVuSans-30"/>
      </g>
     </g>
    </g>
    <g id="xtick_8">
     <g id="line2d_19">
      <g>
       <use xlink:href="#m3b5c8719ae" x="416.041591" y="174.04" style="stroke: #000000; stroke-width: 0.8"/>
      </g>
     </g>
     <g id="text_20">
      <!-- 20 -->
      <g transform="translate(409.679091 188.638438) scale(0.1 -0.1)">
       <use xlink:href="#DejaVuSans-32"/>
       <use xlink:href="#DejaVuSans-30" x="63.623047"/>
      </g>
     </g>
    </g>
    <g id="xtick_9">
     <g id="line2d_20">
      <g>
       <use xlink:href="#m3b5c8719ae" x="451.149167" y="174.04" style="stroke: #000000; stroke-width: 0.8"/>
      </g>
     </g>
     <g id="text_21">
      <!-- 40 -->
      <g transform="translate(444.786667 188.638438) scale(0.1 -0.1)">
       <use xlink:href="#DejaVuSans-34"/>
       <use xlink:href="#DejaVuSans-30" x="63.623047"/>
      </g>
     </g>
    </g>
    <g id="xtick_10">
     <g id="line2d_21">
      <g>
       <use xlink:href="#m3b5c8719ae" x="486.256743" y="174.04" style="stroke: #000000; stroke-width: 0.8"/>
      </g>
     </g>
     <g id="text_22">
      <!-- 60 -->
      <g transform="translate(479.894243 188.638438) scale(0.1 -0.1)">
       <use xlink:href="#DejaVuSans-36"/>
       <use xlink:href="#DejaVuSans-30" x="63.623047"/>
      </g>
     </g>
    </g>
    <g id="xtick_11">
     <g id="line2d_22">
      <g>
       <use xlink:href="#m3b5c8719ae" x="521.364319" y="174.04" style="stroke: #000000; stroke-width: 0.8"/>
      </g>
     </g>
     <g id="text_23">
      <!-- 80 -->
      <g transform="translate(515.001819 188.638438) scale(0.1 -0.1)">
       <use xlink:href="#DejaVuSans-38"/>
       <use xlink:href="#DejaVuSans-30" x="63.623047"/>
      </g>
     </g>
    </g>
    <g id="xtick_12">
     <g id="line2d_23">
      <g>
       <use xlink:href="#m3b5c8719ae" x="556.471895" y="174.04" style="stroke: #000000; stroke-width: 0.8"/>
      </g>
     </g>
     <g id="text_24">
      <!-- 100 -->
      <g transform="translate(546.928145 188.638438) scale(0.1 -0.1)">
       <use xlink:href="#DejaVuSans-31"/>
       <use xlink:href="#DejaVuSans-30" x="63.623047"/>
       <use xlink:href="#DejaVuSans-30" x="127.246094"/>
      </g>
     </g>
    </g>
    <g id="text_25">
     <!-- % other drivers -->
     <g transform="translate(433.53696 202.316563) scale(0.1 -0.1)">
      <use xlink:href="#DejaVuSans-25"/>
      <use xlink:href="#DejaVuSans-20" x="95.019531"/>
      <use xlink:href="#DejaVuSans-6f" x="126.806641"/>
      <use xlink:href="#DejaVuSans-74" x="187.988281"/>
      <use xlink:href="#DejaVuSans-68" x="227.197266"/>
      <use xlink:href="#DejaVuSans-65" x="290.576172"/>
      <use xlink:href="#DejaVuSans-72" x="352.099609"/>
      <use xlink:href="#DejaVuSans-20" x="393.212891"/>
      <use xlink:href="#DejaVuSans-64" x="425"/>
      <use xlink:href="#DejaVuSans-72" x="488.476562"/>
      <use xlink:href="#DejaVuSans-69" x="529.589844"/>
      <use xlink:href="#DejaVuSans-76" x="557.373047"/>
      <use xlink:href="#DejaVuSans-65" x="616.552734"/>
      <use xlink:href="#DejaVuSans-72" x="678.076172"/>
      <use xlink:href="#DejaVuSans-73" x="719.189453"/>
     </g>
    </g>
   </g>
   <g id="matplotlib.axis_4">
    <g id="ytick_12">
     <g id="line2d_24">
      <g>
       <use xlink:href="#m0fb6e33eab" x="380.934015" y="161.443256" style="stroke: #000000; stroke-width: 0.8"/>
      </g>
     </g>
    </g>
    <g id="ytick_13">
     <g id="line2d_25">
      <g>
       <use xlink:href="#m0fb6e33eab" x="380.934015" y="147.638605" style="stroke: #000000; stroke-width: 0.8"/>
      </g>
     </g>
    </g>
    <g id="ytick_14">
     <g id="line2d_26">
      <g>
       <use xlink:href="#m0fb6e33eab" x="380.934015" y="133.833953" style="stroke: #000000; stroke-width: 0.8"/>
      </g>
     </g>
    </g>
    <g id="ytick_15">
     <g id="line2d_27">
      <g>
       <use xlink:href="#m0fb6e33eab" x="380.934015" y="120.029302" style="stroke: #000000; stroke-width: 0.8"/>
      </g>
     </g>
    </g>
    <g id="ytick_16">
     <g id="line2d_28">
      <g>
       <use xlink:href="#m0fb6e33eab" x="380.934015" y="106.224651" style="stroke: #000000; stroke-width: 0.8"/>
      </g>
     </g>
    </g>
    <g id="ytick_17">
     <g id="line2d_29">
      <g>
       <use xlink:href="#m0fb6e33eab" x="380.934015" y="92.42" style="stroke: #000000; stroke-width: 0.8"/>
      </g>
     </g>
    </g>
    <g id="ytick_18">
     <g id="line2d_30">
      <g>
       <use xlink:href="#m0fb6e33eab" x="380.934015" y="78.615349" style="stroke: #000000; stroke-width: 0.8"/>
      </g>
     </g>
    </g>
    <g id="ytick_19">
     <g id="line2d_31">
      <g>
       <use xlink:href="#m0fb6e33eab" x="380.934015" y="64.810698" style="stroke: #000000; stroke-width: 0.8"/>
      </g>
     </g>
    </g>
    <g id="ytick_20">
     <g id="line2d_32">
      <g>
       <use xlink:href="#m0fb6e33eab" x="380.934015" y="51.006047" style="stroke: #000000; stroke-width: 0.8"/>
      </g>
     </g>
    </g>
    <g id="ytick_21">
     <g id="line2d_33">
      <g>
       <use xlink:href="#m0fb6e33eab" x="380.934015" y="37.201395" style="stroke: #000000; stroke-width: 0.8"/>
      </g>
     </g>
    </g>
    <g id="ytick_22">
     <g id="line2d_34">
      <g>
       <use xlink:href="#m0fb6e33eab" x="380.934015" y="23.396744" style="stroke: #000000; stroke-width: 0.8"/>
      </g>
     </g>
    </g>
   </g>
   <g id="patch_74">
    <path d="M 380.934015 174.04 
L 380.934015 10.8 
" style="fill: none; stroke: #000000; stroke-width: 0.8; stroke-linejoin: miter; stroke-linecap: square"/>
   </g>
   <g id="patch_75">
    <path d="M 563.26803 174.04 
L 563.26803 10.8 
" style="fill: none; stroke: #000000; stroke-width: 0.8; stroke-linejoin: miter; stroke-linecap: square"/>
   </g>
   <g id="patch_76">
    <path d="M 380.934015 174.04 
L 563.26803 174.04 
" style="fill: none; stroke: #000000; stroke-width: 0.8; stroke-linejoin: miter; stroke-linecap: square"/>
   </g>
   <g id="patch_77">
    <path d="M 380.934015 10.8 
L 563.26803 10.8 
" style="fill: none; stroke: #000000; stroke-width: 0.8; stroke-linejoin: miter; stroke-linecap: square"/>
   </g>
  </g>
 </g>
 <defs>
  <clipPath id="pc5423f8f12">
   <rect x="184.3" y="10.8" width="182.334015" height="163.24"/>
  </clipPath>
  <clipPath id="pe207481131">
   <rect x="380.934015" y="10.8" width="182.334015" height="163.24"/>
  </clipPath>
 </defs>
</svg>
